<mxfile host="Electron" modified="2024-03-13T06:13:33.836Z" agent="Mozilla/5.0 (Windows NT 10.0; Win64; x64) AppleWebKit/537.36 (KHTML, like Gecko) draw.io/22.1.2 Chrome/114.0.5735.289 Electron/25.9.4 Safari/537.36" etag="LDcNVmA1wkrIEXvzPim_" version="22.1.2" type="device">
  <diagram name="Page-1" id="Z--wwbo54AVfUN6RX7kC">
    <mxGraphModel dx="1276" dy="1006" grid="0" gridSize="6" guides="1" tooltips="1" connect="1" arrows="1" fold="1" page="0" pageScale="1" pageWidth="850" pageHeight="1100" background="#FFFFFF" math="0" shadow="1">
      <root>
        <mxCell id="0" />
        <mxCell id="1" parent="0" />
        <mxCell id="Sa63P_zkQJ-uanF0f62c-10" value="" style="ellipse;shape=cloud;whiteSpace=wrap;html=1;fillColor=#00CCCC;fontColor=#ffffff;strokeColor=#2D7600;" parent="1" vertex="1">
          <mxGeometry x="325" y="282" width="137" height="120" as="geometry" />
        </mxCell>
        <mxCell id="Sa63P_zkQJ-uanF0f62c-11" value="" style="image;html=1;image=img/lib/clip_art/computers/Monitor_128x128.png" parent="1" vertex="1">
          <mxGeometry x="24" y="120" width="80" height="80" as="geometry" />
        </mxCell>
        <mxCell id="Sa63P_zkQJ-uanF0f62c-16" value="" style="image;html=1;image=img/lib/clip_art/computers/Server_128x128.png" parent="1" vertex="1">
          <mxGeometry x="24" y="294" width="84" height="80" as="geometry" />
        </mxCell>
        <mxCell id="Sa63P_zkQJ-uanF0f62c-17" value="" style="verticalLabelPosition=bottom;html=1;verticalAlign=top;strokeWidth=1;align=center;outlineConnect=0;dashed=0;outlineConnect=0;shape=mxgraph.aws3d.client;aspect=fixed;strokeColor=none;fillColor=#777777;" parent="1" vertex="1">
          <mxGeometry x="38" y="456" width="70" height="121.33" as="geometry" />
        </mxCell>
        <mxCell id="Sa63P_zkQJ-uanF0f62c-26" value="&lt;font color=&quot;#050505&quot; style=&quot;font-size: 28px;&quot;&gt;&lt;b&gt;Clients&lt;/b&gt;&lt;/font&gt;" style="text;html=1;align=center;verticalAlign=middle;resizable=0;points=[];autosize=1;strokeColor=none;fillColor=none;" parent="1" vertex="1">
          <mxGeometry x="21" y="592" width="111" height="46" as="geometry" />
        </mxCell>
        <mxCell id="Sa63P_zkQJ-uanF0f62c-30" value="&lt;font color=&quot;#000000&quot; style=&quot;font-size: 28px;&quot;&gt;&lt;b&gt;internet&lt;/b&gt;&lt;/font&gt;" style="text;html=1;align=center;verticalAlign=middle;resizable=0;points=[];autosize=1;strokeColor=none;fillColor=none;" parent="1" vertex="1">
          <mxGeometry x="335" y="385" width="121" height="46" as="geometry" />
        </mxCell>
        <mxCell id="Sa63P_zkQJ-uanF0f62c-37" value="" style="endArrow=none;html=1;rounded=0;dashed=1;dashPattern=8 8;flowAnimation=1;arcSize=26;strokeWidth=2;fillColor=#e1d5e7;strokeColor=#000000;" parent="1" edge="1">
          <mxGeometry width="50" height="50" relative="1" as="geometry">
            <mxPoint x="114" y="516" as="sourcePoint" />
            <mxPoint x="390" y="520" as="targetPoint" />
          </mxGeometry>
        </mxCell>
        <mxCell id="Sa63P_zkQJ-uanF0f62c-41" value="" style="endArrow=classic;html=1;rounded=0;entryX=0.736;entryY=0.867;entryDx=0;entryDy=0;entryPerimeter=0;dashed=1;dashPattern=8 8;flowAnimation=1;strokeWidth=2;strokeColor=#050505;" parent="1" edge="1">
          <mxGeometry width="50" height="50" relative="1" as="geometry">
            <mxPoint x="394.33" y="522" as="sourcePoint" />
            <mxPoint x="394.36999999999995" y="432" as="targetPoint" />
          </mxGeometry>
        </mxCell>
        <mxCell id="Sa63P_zkQJ-uanF0f62c-42" value="" style="endArrow=none;html=1;rounded=0;dashed=1;dashPattern=12 12;flowAnimation=1;exitX=1;exitY=0.5;exitDx=0;exitDy=0;strokeWidth=2;strokeColor=#0d0d0d;" parent="1" source="Sa63P_zkQJ-uanF0f62c-11" edge="1">
          <mxGeometry width="50" height="50" relative="1" as="geometry">
            <mxPoint x="156" y="162" as="sourcePoint" />
            <mxPoint x="384" y="162" as="targetPoint" />
            <Array as="points">
              <mxPoint x="246" y="162" />
            </Array>
          </mxGeometry>
        </mxCell>
        <mxCell id="Sa63P_zkQJ-uanF0f62c-43" value="" style="endArrow=classic;html=1;rounded=0;dashed=1;flowAnimation=1;dashPattern=8 8;strokeWidth=2;strokeColor=#050505;" parent="1" edge="1">
          <mxGeometry width="50" height="50" relative="1" as="geometry">
            <mxPoint x="384" y="162" as="sourcePoint" />
            <mxPoint x="384" y="276" as="targetPoint" />
          </mxGeometry>
        </mxCell>
        <mxCell id="Sa63P_zkQJ-uanF0f62c-45" value="" style="endArrow=classic;html=1;rounded=0;exitX=1;exitY=0.5;exitDx=0;exitDy=0;dashed=1;dashPattern=12 12;strokeWidth=2;strokeColor=#0F0F0F;flowAnimation=1;" parent="1" source="Sa63P_zkQJ-uanF0f62c-16" edge="1">
          <mxGeometry width="50" height="50" relative="1" as="geometry">
            <mxPoint x="174" y="334" as="sourcePoint" />
            <mxPoint x="324" y="334" as="targetPoint" />
          </mxGeometry>
        </mxCell>
        <mxCell id="Sa63P_zkQJ-uanF0f62c-114" value="" style="endArrow=none;html=1;rounded=0;strokeColor=#0F0F0F;strokeWidth=4;" parent="1" edge="1">
          <mxGeometry width="50" height="50" relative="1" as="geometry">
            <mxPoint x="630" y="294" as="sourcePoint" />
            <mxPoint x="762" y="294" as="targetPoint" />
          </mxGeometry>
        </mxCell>
        <mxCell id="Sa63P_zkQJ-uanF0f62c-115" value="" style="endArrow=none;html=1;rounded=0;strokeColor=#0F0F0F;strokeWidth=4;" parent="1" edge="1">
          <mxGeometry width="50" height="50" relative="1" as="geometry">
            <mxPoint x="630" y="336" as="sourcePoint" />
            <mxPoint x="762" y="336" as="targetPoint" />
          </mxGeometry>
        </mxCell>
        <mxCell id="Sa63P_zkQJ-uanF0f62c-116" value="" style="endArrow=none;html=1;rounded=0;strokeWidth=4;strokeColor=#0F0F0F;" parent="1" edge="1">
          <mxGeometry width="50" height="50" relative="1" as="geometry">
            <mxPoint x="630" y="384" as="sourcePoint" />
            <mxPoint x="762" y="384" as="targetPoint" />
          </mxGeometry>
        </mxCell>
        <mxCell id="Sa63P_zkQJ-uanF0f62c-117" value="" style="endArrow=none;html=1;rounded=0;strokeColor=#0F0F0F;strokeWidth=4;" parent="1" edge="1">
          <mxGeometry width="50" height="50" relative="1" as="geometry">
            <mxPoint x="630" y="384" as="sourcePoint" />
            <mxPoint x="630" y="294" as="targetPoint" />
          </mxGeometry>
        </mxCell>
        <mxCell id="Sa63P_zkQJ-uanF0f62c-118" value="" style="endArrow=none;html=1;rounded=0;strokeColor=#0F0F0F;strokeWidth=4;" parent="1" edge="1">
          <mxGeometry width="50" height="50" relative="1" as="geometry">
            <mxPoint x="762" y="294" as="sourcePoint" />
            <mxPoint x="762" y="384" as="targetPoint" />
          </mxGeometry>
        </mxCell>
        <mxCell id="Sa63P_zkQJ-uanF0f62c-119" value="" style="endArrow=none;html=1;rounded=0;strokeWidth=4;strokeColor=#171616;" parent="1" edge="1">
          <mxGeometry width="50" height="50" relative="1" as="geometry">
            <mxPoint x="648" y="318" as="sourcePoint" />
            <mxPoint x="678" y="318" as="targetPoint" />
          </mxGeometry>
        </mxCell>
        <mxCell id="Sa63P_zkQJ-uanF0f62c-120" value="" style="endArrow=none;html=1;rounded=0;strokeWidth=3;strokeColor=#080808;" parent="1" edge="1">
          <mxGeometry width="50" height="50" relative="1" as="geometry">
            <mxPoint x="648" y="360" as="sourcePoint" />
            <mxPoint x="678" y="360" as="targetPoint" />
          </mxGeometry>
        </mxCell>
        <mxCell id="Sa63P_zkQJ-uanF0f62c-121" value="" style="endArrow=none;html=1;rounded=0;strokeWidth=3;strokeColor=#050505;" parent="1" edge="1">
          <mxGeometry width="50" height="50" relative="1" as="geometry">
            <mxPoint x="702" y="315.33" as="sourcePoint" />
            <mxPoint x="744" y="315.33" as="targetPoint" />
          </mxGeometry>
        </mxCell>
        <mxCell id="Sa63P_zkQJ-uanF0f62c-122" value="" style="endArrow=none;html=1;rounded=0;strokeColor=#1f1e1e;strokeWidth=3;" parent="1" edge="1">
          <mxGeometry width="50" height="50" relative="1" as="geometry">
            <mxPoint x="702" y="360" as="sourcePoint" />
            <mxPoint x="744" y="360" as="targetPoint" />
          </mxGeometry>
        </mxCell>
        <mxCell id="Sa63P_zkQJ-uanF0f62c-132" value="" style="endArrow=none;html=1;rounded=0;dashed=1;dashPattern=8 8;strokeColor=#009999;strokeWidth=4;" parent="1" edge="1">
          <mxGeometry width="50" height="50" relative="1" as="geometry">
            <mxPoint x="624" y="444" as="sourcePoint" />
            <mxPoint x="768" y="444" as="targetPoint" />
            <Array as="points" />
          </mxGeometry>
        </mxCell>
        <mxCell id="Sa63P_zkQJ-uanF0f62c-133" value="" style="endArrow=none;html=1;rounded=0;dashed=1;strokeWidth=4;strokeColor=#009999;dashPattern=12 12;" parent="1" edge="1">
          <mxGeometry width="50" height="50" relative="1" as="geometry">
            <mxPoint x="770" y="552" as="sourcePoint" />
            <mxPoint x="770" y="444" as="targetPoint" />
          </mxGeometry>
        </mxCell>
        <mxCell id="Sa63P_zkQJ-uanF0f62c-134" value="" style="endArrow=none;html=1;rounded=0;dashed=1;dashPattern=8 8;strokeColor=#009999;strokeWidth=4;" parent="1" edge="1">
          <mxGeometry width="50" height="50" relative="1" as="geometry">
            <mxPoint x="624" y="498" as="sourcePoint" />
            <mxPoint x="768" y="498" as="targetPoint" />
          </mxGeometry>
        </mxCell>
        <mxCell id="Sa63P_zkQJ-uanF0f62c-135" value="" style="endArrow=none;html=1;rounded=0;dashed=1;dashPattern=8 8;strokeColor=#009999;strokeWidth=4;" parent="1" edge="1">
          <mxGeometry width="50" height="50" relative="1" as="geometry">
            <mxPoint x="624" y="552" as="sourcePoint" />
            <mxPoint x="768" y="552" as="targetPoint" />
          </mxGeometry>
        </mxCell>
        <mxCell id="Sa63P_zkQJ-uanF0f62c-136" value="" style="endArrow=none;html=1;rounded=0;dashed=1;dashPattern=8 8;strokeWidth=4;strokeColor=#009999;" parent="1" edge="1">
          <mxGeometry width="50" height="50" relative="1" as="geometry">
            <mxPoint x="624" y="552" as="sourcePoint" />
            <mxPoint x="624" y="444" as="targetPoint" />
          </mxGeometry>
        </mxCell>
        <mxCell id="Sa63P_zkQJ-uanF0f62c-137" value="" style="endArrow=none;html=1;rounded=0;strokeWidth=3;strokeColor=#009999;" parent="1" edge="1">
          <mxGeometry width="50" height="50" relative="1" as="geometry">
            <mxPoint x="648" y="468" as="sourcePoint" />
            <mxPoint x="678" y="468" as="targetPoint" />
          </mxGeometry>
        </mxCell>
        <mxCell id="Sa63P_zkQJ-uanF0f62c-138" value="" style="endArrow=none;html=1;rounded=0;strokeWidth=3;strokeColor=#009999;" parent="1" edge="1">
          <mxGeometry width="50" height="50" relative="1" as="geometry">
            <mxPoint x="714" y="468" as="sourcePoint" />
            <mxPoint x="756" y="468" as="targetPoint" />
          </mxGeometry>
        </mxCell>
        <mxCell id="Sa63P_zkQJ-uanF0f62c-139" value="" style="endArrow=none;html=1;rounded=0;strokeWidth=3;strokeColor=#009999;" parent="1" edge="1">
          <mxGeometry width="50" height="50" relative="1" as="geometry">
            <mxPoint x="708" y="522" as="sourcePoint" />
            <mxPoint x="750" y="522" as="targetPoint" />
          </mxGeometry>
        </mxCell>
        <mxCell id="Sa63P_zkQJ-uanF0f62c-140" value="" style="endArrow=none;html=1;rounded=0;strokeWidth=3;strokeColor=#009999;" parent="1" edge="1">
          <mxGeometry width="50" height="50" relative="1" as="geometry">
            <mxPoint x="648" y="522" as="sourcePoint" />
            <mxPoint x="678" y="522" as="targetPoint" />
            <Array as="points" />
          </mxGeometry>
        </mxCell>
        <mxCell id="Sa63P_zkQJ-uanF0f62c-150" value="" style="endArrow=none;html=1;rounded=0;dashed=1;dashPattern=8 8;strokeColor=#00CCCC;strokeWidth=3;noJump=0;flowAnimation=0;" parent="1" edge="1">
          <mxGeometry width="50" height="50" relative="1" as="geometry">
            <mxPoint x="624" y="120" as="sourcePoint" />
            <mxPoint x="768" y="120" as="targetPoint" />
            <Array as="points" />
          </mxGeometry>
        </mxCell>
        <mxCell id="Sa63P_zkQJ-uanF0f62c-151" value="" style="endArrow=none;html=1;rounded=0;dashed=1;dashPattern=8 8;strokeColor=#00CCCC;strokeWidth=3;flowAnimation=0;" parent="1" edge="1">
          <mxGeometry width="50" height="50" relative="1" as="geometry">
            <mxPoint x="770" y="228" as="sourcePoint" />
            <mxPoint x="770" y="120" as="targetPoint" />
          </mxGeometry>
        </mxCell>
        <mxCell id="Sa63P_zkQJ-uanF0f62c-152" value="" style="endArrow=none;html=1;rounded=0;dashed=1;dashPattern=8 8;strokeColor=#00CCCC;strokeWidth=2;flowAnimation=0;" parent="1" edge="1">
          <mxGeometry width="50" height="50" relative="1" as="geometry">
            <mxPoint x="624" y="174" as="sourcePoint" />
            <mxPoint x="768" y="174" as="targetPoint" />
          </mxGeometry>
        </mxCell>
        <mxCell id="Sa63P_zkQJ-uanF0f62c-153" value="" style="endArrow=none;html=1;rounded=0;dashed=1;dashPattern=8 8;strokeColor=#00CCCC;strokeWidth=3;flowAnimation=0;" parent="1" edge="1">
          <mxGeometry width="50" height="50" relative="1" as="geometry">
            <mxPoint x="624" y="228" as="sourcePoint" />
            <mxPoint x="768" y="228" as="targetPoint" />
          </mxGeometry>
        </mxCell>
        <mxCell id="Sa63P_zkQJ-uanF0f62c-154" value="" style="endArrow=none;html=1;rounded=0;dashed=1;dashPattern=8 8;strokeWidth=3;strokeColor=#00CCCC;" parent="1" edge="1">
          <mxGeometry width="50" height="50" relative="1" as="geometry">
            <mxPoint x="624" y="228" as="sourcePoint" />
            <mxPoint x="624" y="120" as="targetPoint" />
          </mxGeometry>
        </mxCell>
        <mxCell id="Sa63P_zkQJ-uanF0f62c-155" value="" style="endArrow=none;html=1;rounded=0;strokeWidth=4;strokeColor=#009999;" parent="1" edge="1">
          <mxGeometry width="50" height="50" relative="1" as="geometry">
            <mxPoint x="642" y="144" as="sourcePoint" />
            <mxPoint x="672" y="144" as="targetPoint" />
          </mxGeometry>
        </mxCell>
        <mxCell id="Sa63P_zkQJ-uanF0f62c-156" value="" style="endArrow=none;html=1;rounded=0;strokeWidth=4;strokeColor=#009999;" parent="1" edge="1">
          <mxGeometry width="50" height="50" relative="1" as="geometry">
            <mxPoint x="690" y="144" as="sourcePoint" />
            <mxPoint x="732" y="144" as="targetPoint" />
          </mxGeometry>
        </mxCell>
        <mxCell id="Sa63P_zkQJ-uanF0f62c-157" value="" style="endArrow=none;html=1;rounded=0;strokeWidth=4;strokeColor=#00CCCC;" parent="1" edge="1">
          <mxGeometry width="50" height="50" relative="1" as="geometry">
            <mxPoint x="642" y="198" as="sourcePoint" />
            <mxPoint x="672" y="198" as="targetPoint" />
            <Array as="points" />
          </mxGeometry>
        </mxCell>
        <mxCell id="Sa63P_zkQJ-uanF0f62c-158" value="" style="endArrow=none;html=1;rounded=0;strokeWidth=4;strokeColor=#009999;" parent="1" edge="1">
          <mxGeometry width="50" height="50" relative="1" as="geometry">
            <mxPoint x="690" y="198" as="sourcePoint" />
            <mxPoint x="732" y="198" as="targetPoint" />
          </mxGeometry>
        </mxCell>
        <mxCell id="Sa63P_zkQJ-uanF0f62c-162" value="" style="verticalLabelPosition=bottom;shadow=0;align=center;html=1;verticalAlign=top;strokeWidth=6;shape=mxgraph.mockup.markup.curlyBrace;whiteSpace=wrap;strokeColor=#0F0F0F;direction=south;fillStyle=auto;" parent="1" vertex="1">
          <mxGeometry x="790" y="98" width="20" height="177" as="geometry" />
        </mxCell>
        <mxCell id="Sa63P_zkQJ-uanF0f62c-163" value="" style="verticalLabelPosition=bottom;shadow=0;dashed=0;align=center;html=1;verticalAlign=top;strokeWidth=5;shape=mxgraph.mockup.markup.curlyBrace;whiteSpace=wrap;strokeColor=#0F0F0F;direction=south;" parent="1" vertex="1">
          <mxGeometry x="790" y="408" width="20" height="177" as="geometry" />
        </mxCell>
        <mxCell id="Sa63P_zkQJ-uanF0f62c-164" value="" style="html=1;verticalAlign=bottom;labelBackgroundColor=none;endArrow=block;endFill=1;rounded=0;strokeColor=#050505;strokeWidth=3;dashed=1;dashPattern=8 8;flowAnimation=1;" parent="1" edge="1">
          <mxGeometry width="160" relative="1" as="geometry">
            <mxPoint x="459" y="337" as="sourcePoint" />
            <mxPoint x="618" y="337" as="targetPoint" />
          </mxGeometry>
        </mxCell>
        <mxCell id="Sa63P_zkQJ-uanF0f62c-165" value="&lt;font color=&quot;#000000&quot; style=&quot;font-size: 28px;&quot;&gt;&lt;b&gt;Proxies&lt;/b&gt;&lt;/font&gt;" style="text;html=1;align=center;verticalAlign=middle;resizable=0;points=[];autosize=1;strokeColor=none;fillColor=none;" parent="1" vertex="1">
          <mxGeometry x="620" y="574" width="119" height="46" as="geometry" />
        </mxCell>
        <mxCell id="Sa63P_zkQJ-uanF0f62c-166" value="&lt;font style=&quot;font-size: 25px;&quot; color=&quot;#000000&quot;&gt;&lt;b&gt;Proxies scale dynamically&lt;br&gt;to satisfy load&lt;br&gt;&amp;nbsp;and maintain avaiability&lt;br&gt;&lt;/b&gt;&lt;/font&gt;" style="text;html=1;align=center;verticalAlign=middle;resizable=0;points=[];autosize=1;strokeColor=none;fillColor=none;" parent="1" vertex="1">
          <mxGeometry x="815" y="133" width="328" height="102" as="geometry" />
        </mxCell>
        <mxCell id="Sa63P_zkQJ-uanF0f62c-167" value="&lt;font color=&quot;#0f0f0f&quot; style=&quot;font-size: 23px;&quot;&gt;Autoscaling enables organizations to automate schedule-based &lt;br&gt;and load-based scaling by managing resources on demand.&lt;/font&gt;" style="text;html=1;align=center;verticalAlign=middle;resizable=0;points=[];autosize=1;strokeColor=none;fillColor=none;" parent="1" vertex="1">
          <mxGeometry x="50" y="705" width="664" height="67" as="geometry" />
        </mxCell>
        <mxCell id="Sa63P_zkQJ-uanF0f62c-168" value="&lt;b&gt;&lt;font color=&quot;#0000ff&quot; style=&quot;font-size: 34px;&quot;&gt;Autoscaling&lt;/font&gt;&lt;/b&gt;" style="text;html=1;align=center;verticalAlign=middle;resizable=0;points=[];autosize=1;strokeColor=none;fillColor=none;" parent="1" vertex="1">
          <mxGeometry x="375" y="-76" width="213" height="53" as="geometry" />
        </mxCell>
      </root>
    </mxGraphModel>
  </diagram>
</mxfile>
